<svg xmlns="http://www.w3.org/2000/svg" width="1050" height="551" viewBox="0 0 1050 551"><rect x="0" y="0" width="1050" height="551" fill="none" stroke="#5B6470" stroke-width="1"/><rect x="0" y="0" width="1050" height="551" fill="none" stroke="#5B6470" stroke-width="1"/><rect x="53" y="53" width="414" height="86" fill="none" stroke="#5B6470" stroke-width="1"/><rect x="53" y="53" width="213" height="131" fill="none" stroke="#5B6470" stroke-width="1"/><rect x="61" y="61" width="118" height="110" fill="none" stroke="#5B6470" stroke-width="1"/><rect x="292" y="53" width="234" height="131" fill="none" stroke="#5B6470" stroke-width="1"/><rect x="300" y="61" width="118" height="110" fill="none" stroke="#5B6470" stroke-width="1"/><rect x="552" y="53" width="236" height="131" fill="none" stroke="#5B6470" stroke-width="1"/><rect x="560" y="61" width="118" height="110" fill="none" stroke="#5B6470" stroke-width="1"/><rect x="814" y="53" width="180" height="131" fill="none" stroke="#5B6470" stroke-width="1"/><rect x="822" y="61" width="118" height="110" fill="none" stroke="#5B6470" stroke-width="1"/><rect x="53" y="237" width="210" height="131" fill="none" stroke="#5B6470" stroke-width="1"/><rect x="61" y="245" width="118" height="110" fill="none" stroke="#5B6470" stroke-width="1"/><rect x="289" y="237" width="215" height="131" fill="none" stroke="#5B6470" stroke-width="1"/><rect x="297" y="245" width="118" height="110" fill="none" stroke="#5B6470" stroke-width="1"/><rect x="530" y="237" width="257" height="131" fill="none" stroke="#5B6470" stroke-width="1"/><rect x="538" y="245" width="118" height="110" fill="none" stroke="#5B6470" stroke-width="1"/><rect x="813" y="237" width="181" height="131" fill="none" stroke="#5B6470" stroke-width="1"/><rect x="821" y="245" width="118" height="110" fill="none" stroke="#5B6470" stroke-width="1"/><rect x="53" y="421" width="213" height="77" fill="none" stroke="#5B6470" stroke-width="1"/><rect x="61" y="429" width="118" height="61" fill="none" stroke="#5B6470" stroke-width="1"/><rect x="292" y="421" width="252" height="77" fill="none" stroke="#5B6470" stroke-width="1"/><rect x="300" y="429" width="118" height="61" fill="none" stroke="#5B6470" stroke-width="1"/><rect x="570" y="421" width="228" height="77" fill="none" stroke="#5B6470" stroke-width="1"/><rect x="578" y="429" width="118" height="61" fill="none" stroke="#5B6470" stroke-width="1"/><rect x="824" y="421" width="170" height="77" fill="none" stroke="#5B6470" stroke-width="1"/><rect x="832" y="429" width="118" height="61" fill="none" stroke="#5B6470" stroke-width="1"/></svg>