<svg xmlns="http://www.w3.org/2000/svg" width="1050" height="551" viewBox="0 0 1050 551"><rect x="0" y="0" width="1050" height="551" fill="none" stroke="#5B6470" stroke-width="1"/><rect x="0" y="0" width="1050" height="551" fill="none" stroke="#5B6470" stroke-width="1"/><rect x="53" y="53" width="414" height="86" fill="none" stroke="#5B6470" stroke-width="1"/><rect x="53" y="53" width="215" height="131" fill="none" stroke="#5B6470" stroke-width="1"/><rect x="61" y="61" width="118" height="110" fill="none" stroke="#5B6470" stroke-width="1"/><rect x="294" y="53" width="247" height="131" fill="none" stroke="#5B6470" stroke-width="1"/><rect x="302" y="61" width="118" height="110" fill="none" stroke="#5B6470" stroke-width="1"/><rect x="567" y="53" width="236" height="131" fill="none" stroke="#5B6470" stroke-width="1"/><rect x="575" y="61" width="118" height="110" fill="none" stroke="#5B6470" stroke-width="1"/><rect x="829" y="53" width="165" height="131" fill="none" stroke="#5B6470" stroke-width="1"/><rect x="837" y="61" width="118" height="110" fill="none" stroke="#5B6470" stroke-width="1"/><rect x="53" y="237" width="249" height="131" fill="none" stroke="#5B6470" stroke-width="1"/><rect x="61" y="245" width="118" height="110" fill="none" stroke="#5B6470" stroke-width="1"/><rect x="328" y="237" width="236" height="131" fill="none" stroke="#5B6470" stroke-width="1"/><rect x="336" y="245" width="118" height="110" fill="none" stroke="#5B6470" stroke-width="1"/><rect x="590" y="237" width="234" height="131" fill="none" stroke="#5B6470" stroke-width="1"/><rect x="598" y="245" width="118" height="110" fill="none" stroke="#5B6470" stroke-width="1"/><rect x="850" y="237" width="144" height="131" fill="none" stroke="#5B6470" stroke-width="1"/><rect x="858" y="245" width="118" height="110" fill="none" stroke="#5B6470" stroke-width="1"/><rect x="53" y="421" width="239" height="77" fill="none" stroke="#5B6470" stroke-width="1"/><rect x="61" y="429" width="118" height="61" fill="none" stroke="#5B6470" stroke-width="1"/><rect x="318" y="421" width="221" height="77" fill="none" stroke="#5B6470" stroke-width="1"/><rect x="326" y="429" width="118" height="61" fill="none" stroke="#5B6470" stroke-width="1"/><rect x="565" y="421" width="244" height="77" fill="none" stroke="#5B6470" stroke-width="1"/><rect x="573" y="429" width="118" height="61" fill="none" stroke="#5B6470" stroke-width="1"/><rect x="835" y="421" width="159" height="77" fill="none" stroke="#5B6470" stroke-width="1"/><rect x="843" y="429" width="118" height="61" fill="none" stroke="#5B6470" stroke-width="1"/></svg>