<svg xmlns="http://www.w3.org/2000/svg" width="1050" height="551" viewBox="0 0 1050 551"><rect x="0" y="0" width="1050" height="551" fill="none" stroke="#5B6470" stroke-width="1"/><rect x="0" y="0" width="1050" height="551" fill="none" stroke="#5B6470" stroke-width="1"/><rect x="53" y="53" width="414" height="86" fill="none" stroke="#5B6470" stroke-width="1"/><rect x="53" y="53" width="223" height="131" fill="none" stroke="#5B6470" stroke-width="1"/><rect x="61" y="61" width="118" height="110" fill="none" stroke="#5B6470" stroke-width="1"/><rect x="302" y="53" width="249" height="131" fill="none" stroke="#5B6470" stroke-width="1"/><rect x="310" y="61" width="118" height="110" fill="none" stroke="#5B6470" stroke-width="1"/><rect x="577" y="53" width="228" height="131" fill="none" stroke="#5B6470" stroke-width="1"/><rect x="585" y="61" width="118" height="110" fill="none" stroke="#5B6470" stroke-width="1"/><rect x="831" y="53" width="163" height="131" fill="none" stroke="#5B6470" stroke-width="1"/><rect x="839" y="61" width="118" height="110" fill="none" stroke="#5B6470" stroke-width="1"/><rect x="53" y="237" width="236" height="131" fill="none" stroke="#5B6470" stroke-width="1"/><rect x="61" y="245" width="118" height="110" fill="none" stroke="#5B6470" stroke-width="1"/><rect x="315" y="237" width="247" height="131" fill="none" stroke="#5B6470" stroke-width="1"/><rect x="323" y="245" width="118" height="110" fill="none" stroke="#5B6470" stroke-width="1"/><rect x="588" y="237" width="215" height="131" fill="none" stroke="#5B6470" stroke-width="1"/><rect x="596" y="245" width="118" height="110" fill="none" stroke="#5B6470" stroke-width="1"/><rect x="829" y="237" width="165" height="131" fill="none" stroke="#5B6470" stroke-width="1"/><rect x="837" y="245" width="118" height="110" fill="none" stroke="#5B6470" stroke-width="1"/><rect x="53" y="421" width="257" height="77" fill="none" stroke="#5B6470" stroke-width="1"/><rect x="61" y="429" width="118" height="61" fill="none" stroke="#5B6470" stroke-width="1"/><rect x="336" y="421" width="255" height="77" fill="none" stroke="#5B6470" stroke-width="1"/><rect x="344" y="429" width="118" height="61" fill="none" stroke="#5B6470" stroke-width="1"/><rect x="617" y="421" width="213" height="77" fill="none" stroke="#5B6470" stroke-width="1"/><rect x="625" y="429" width="118" height="61" fill="none" stroke="#5B6470" stroke-width="1"/><rect x="856" y="421" width="138" height="77" fill="none" stroke="#5B6470" stroke-width="1"/><rect x="864" y="429" width="118" height="61" fill="none" stroke="#5B6470" stroke-width="1"/></svg>