<svg xmlns="http://www.w3.org/2000/svg" width="1050" height="551" viewBox="0 0 1050 551"><rect x="0" y="0" width="1050" height="551" fill="none" stroke="#5B6470" stroke-width="1"/><rect x="0" y="0" width="1050" height="551" fill="none" stroke="#5B6470" stroke-width="1"/><rect x="53" y="53" width="414" height="86" fill="none" stroke="#5B6470" stroke-width="1"/><rect x="53" y="53" width="236" height="131" fill="none" stroke="#5B6470" stroke-width="1"/><rect x="61" y="61" width="118" height="110" fill="none" stroke="#5B6470" stroke-width="1"/><rect x="315" y="53" width="239" height="131" fill="none" stroke="#5B6470" stroke-width="1"/><rect x="323" y="61" width="118" height="110" fill="none" stroke="#5B6470" stroke-width="1"/><rect x="580" y="53" width="234" height="131" fill="none" stroke="#5B6470" stroke-width="1"/><rect x="588" y="61" width="118" height="110" fill="none" stroke="#5B6470" stroke-width="1"/><rect x="840" y="53" width="154" height="131" fill="none" stroke="#5B6470" stroke-width="1"/><rect x="848" y="61" width="118" height="110" fill="none" stroke="#5B6470" stroke-width="1"/><rect x="53" y="237" width="218" height="131" fill="none" stroke="#5B6470" stroke-width="1"/><rect x="61" y="245" width="118" height="110" fill="none" stroke="#5B6470" stroke-width="1"/><rect x="297" y="237" width="260" height="131" fill="none" stroke="#5B6470" stroke-width="1"/><rect x="305" y="245" width="118" height="110" fill="none" stroke="#5B6470" stroke-width="1"/><rect x="583" y="237" width="213" height="131" fill="none" stroke="#5B6470" stroke-width="1"/><rect x="591" y="245" width="118" height="110" fill="none" stroke="#5B6470" stroke-width="1"/><rect x="822" y="237" width="172" height="131" fill="none" stroke="#5B6470" stroke-width="1"/><rect x="830" y="245" width="118" height="110" fill="none" stroke="#5B6470" stroke-width="1"/><rect x="53" y="421" width="249" height="77" fill="none" stroke="#5B6470" stroke-width="1"/><rect x="61" y="429" width="118" height="61" fill="none" stroke="#5B6470" stroke-width="1"/><rect x="328" y="421" width="234" height="77" fill="none" stroke="#5B6470" stroke-width="1"/><rect x="336" y="429" width="118" height="61" fill="none" stroke="#5B6470" stroke-width="1"/><rect x="588" y="421" width="252" height="77" fill="none" stroke="#5B6470" stroke-width="1"/><rect x="596" y="429" width="118" height="61" fill="none" stroke="#5B6470" stroke-width="1"/><rect x="866" y="421" width="128" height="77" fill="none" stroke="#5B6470" stroke-width="1"/><rect x="874" y="429" width="112" height="61" fill="none" stroke="#5B6470" stroke-width="1"/></svg>