<svg xmlns="http://www.w3.org/2000/svg" viewBox="0 0 1050 3139" width="1050" height="3139" role="img" aria-label="VerticalFloatingToolbar/CenteredVerticalFloatingToolbarWithFabSample layout wireframe">
  <title>VerticalFloatingToolbar/CenteredVerticalFloatingToolbarWithFabSample — layout wireframe (slots + tokens)</title>
  <rect width="1050" height="3139" fill="#ffffff"/>
  <g>
    <rect x="0" y="0" width="1050" height="2100" fill="none" fill-opacity="0" stroke="#5B6470" stroke-width="1" stroke-opacity="0.5"/>
  </g>
  <g>
    <rect x="0" y="0" width="1050" height="2100" fill="none" fill-opacity="0" stroke="#2E7D6B" stroke-width="1" stroke-opacity="0.5"/>
  </g>
  <g>
    <rect x="0" y="0" width="1050" height="2100" fill="#FEF7FF" fill-opacity="1" stroke="#8E6BA8" stroke-width="1.5" stroke-opacity="1"/>
    <text x="3" y="12" font-family="system-ui, sans-serif" font-size="9" fill="#8E6BA8">#FFFEF7FF</text>
  </g>
  <g>
    <rect x="0" y="0" width="1050" height="2100" fill="none" fill-opacity="0" stroke="#B0813B" stroke-width="1" stroke-opacity="0.5"/>
  </g>
  <g>
    <rect x="0" y="0" width="1050" height="2100" fill="none" fill-opacity="0" stroke="#3B72A8" stroke-width="1" stroke-opacity="0.5"/>
  </g>
  <g>
    <rect x="42" y="0" width="966" height="3139" fill="none" fill-opacity="0" stroke="#A85B6B" stroke-width="1" stroke-opacity="0.5"/>
  </g>
  <g>
    <rect x="42" y="0" width="966" height="3139" fill="none" fill-opacity="0" stroke="#4F8A4A" stroke-width="1" stroke-opacity="0.5"/>
  </g>
  <g>
    <rect x="798" y="693" width="210" height="714" fill="none" fill-opacity="0" stroke="#A85B6B" stroke-width="1" stroke-opacity="0.5"/>
  </g>
  <g>
    <rect x="840" y="714" width="126" height="504" fill="#EADDFF" fill-opacity="1" stroke="#4F8A4A" stroke-width="1.5" stroke-opacity="1"/>
    <text x="843" y="726" font-family="system-ui, sans-serif" font-size="9" fill="#4F8A4A">#FFEADDFF  pad 8.0dp</text>
  </g>
  <g>
    <rect x="840" y="714" width="126" height="126" fill="none" fill-opacity="0" stroke="#7A7A33" stroke-width="1" stroke-opacity="0.5"/>
  </g>
  <g>
    <rect x="840" y="714" width="126" height="126" fill="none" fill-opacity="0" stroke="#5B6470" stroke-width="1" stroke-opacity="0.5"/>
  </g>
  <g>
    <rect x="840" y="714" width="126" height="126" fill="none" fill-opacity="0" stroke="#2E7D6B" stroke-width="1" stroke-opacity="0.5"/>
  </g>
  <g>
    <path d="M903.5,725 H903.5 A52.5,52.5 0 0 1 956,777.5 V777.5 A52.5,52.5 0 0 1 903.5,830 H903.5 A52.5,52.5 0 0 1 851,777.5 V777.5 A52.5,52.5 0 0 1 903.5,725 Z" fill="none" fill-opacity="0" stroke="#8E6BA8" stroke-width="1.5" stroke-opacity="1"/>
  </g>
  <g>
    <rect x="872" y="746" width="63" height="63" fill="none" fill-opacity="0" stroke="#B0813B" stroke-width="1" stroke-opacity="0.5"/>
  </g>
  <g>
    <rect x="840" y="840" width="126" height="126" fill="none" fill-opacity="0" stroke="#7A7A33" stroke-width="1" stroke-opacity="0.5"/>
  </g>
  <g>
    <rect x="840" y="840" width="126" height="126" fill="none" fill-opacity="0" stroke="#5B6470" stroke-width="1" stroke-opacity="0.5"/>
  </g>
  <g>
    <rect x="840" y="840" width="126" height="126" fill="none" fill-opacity="0" stroke="#2E7D6B" stroke-width="1" stroke-opacity="0.5"/>
  </g>
  <g>
    <path d="M903.5,851 H903.5 A52.5,52.5 0 0 1 956,903.5 V903.5 A52.5,52.5 0 0 1 903.5,956 H903.5 A52.5,52.5 0 0 1 851,903.5 V903.5 A52.5,52.5 0 0 1 903.5,851 Z" fill="none" fill-opacity="0" stroke="#8E6BA8" stroke-width="1.5" stroke-opacity="1"/>
  </g>
  <g>
    <rect x="872" y="872" width="63" height="63" fill="none" fill-opacity="0" stroke="#B0813B" stroke-width="1" stroke-opacity="0.5"/>
  </g>
  <g>
    <path d="M903.5,977 H903.5 A52.5,52.5 0 0 1 956,1029.5 V1029.5 A52.5,52.5 0 0 1 903.5,1082 H903.5 A52.5,52.5 0 0 1 851,1029.5 V1029.5 A52.5,52.5 0 0 1 903.5,977 Z" fill="none" fill-opacity="0" stroke="#7A7A33" stroke-width="1.5" stroke-opacity="1"/>
  </g>
  <g>
    <rect x="872" y="998" width="63" height="63" fill="none" fill-opacity="0" stroke="#5B6470" stroke-width="1" stroke-opacity="0.5"/>
  </g>
  <g>
    <rect x="840" y="1092" width="126" height="126" fill="none" fill-opacity="0" stroke="#7A7A33" stroke-width="1" stroke-opacity="0.5"/>
  </g>
  <g>
    <rect x="840" y="1092" width="126" height="126" fill="none" fill-opacity="0" stroke="#5B6470" stroke-width="1" stroke-opacity="0.5"/>
  </g>
  <g>
    <rect x="840" y="1092" width="126" height="126" fill="none" fill-opacity="0" stroke="#2E7D6B" stroke-width="1" stroke-opacity="0.5"/>
  </g>
  <g>
    <path d="M903.5,1103 H903.5 A52.5,52.5 0 0 1 956,1155.5 V1155.5 A52.5,52.5 0 0 1 903.5,1208 H903.5 A52.5,52.5 0 0 1 851,1155.5 V1155.5 A52.5,52.5 0 0 1 903.5,1103 Z" fill="none" fill-opacity="0" stroke="#8E6BA8" stroke-width="1.5" stroke-opacity="1"/>
  </g>
  <g>
    <rect x="872" y="1124" width="63" height="63" fill="none" fill-opacity="0" stroke="#B0813B" stroke-width="1" stroke-opacity="0.5"/>
  </g>
  <g>
    <rect x="829" y="1260" width="147" height="147" fill="none" fill-opacity="0" stroke="#4F8A4A" stroke-width="1" stroke-opacity="0.5"/>
  </g>
  <g>
    <rect x="829" y="1260" width="147" height="147" fill="none" fill-opacity="0" stroke="#7A7A33" stroke-width="1" stroke-opacity="0.5"/>
  </g>
  <g>
    <rect x="829" y="1260" width="147" height="147" fill="none" fill-opacity="0" stroke="#5B6470" stroke-width="1" stroke-opacity="0.5"/>
  </g>
  <g>
    <rect x="829" y="1260" width="147" height="147" fill="none" fill-opacity="0" stroke="#2E7D6B" stroke-width="1" stroke-opacity="0.5"/>
  </g>
  <g>
    <path d="M871,1260 H934 A42,42 0 0 1 976,1302 V1365 A42,42 0 0 1 934,1407 H871 A42,42 0 0 1 829,1365 V1302 A42,42 0 0 1 871,1260 Z" fill="#FFD8E4" fill-opacity="1" stroke="#8E6BA8" stroke-width="1.5" stroke-opacity="1"/>
    <text x="832" y="1272" font-family="system-ui, sans-serif" font-size="9" fill="#8E6BA8">#FFFFD8E4</text>
  </g>
  <g>
    <rect x="829" y="1260" width="147" height="147" fill="none" fill-opacity="0" stroke="#B0813B" stroke-width="1" stroke-opacity="0.5"/>
  </g>
  <g>
    <rect x="871" y="1302" width="63" height="63" fill="none" fill-opacity="0" stroke="#3B72A8" stroke-width="1" stroke-opacity="0.5"/>
  </g>
</svg>
