<svg xmlns="http://www.w3.org/2000/svg" viewBox="0 0 252 2100" width="252" height="2100" role="img" aria-label="WideNavigationRail/WideNavigationRailCollapsedSample layout wireframe">
  <title>WideNavigationRail/WideNavigationRailCollapsedSample — layout wireframe (slots + tokens)</title>
  <rect width="252" height="2100" fill="#ffffff"/>
  <g>
    <rect x="0" y="0" width="252" height="2100" fill="none" fill-opacity="0" stroke="#5B6470" stroke-width="1" stroke-opacity="0.5"/>
  </g>
  <g>
    <rect x="0" y="0" width="252" height="2100" fill="none" fill-opacity="0" stroke="#2E7D6B" stroke-width="1" stroke-opacity="0.5"/>
  </g>
  <g>
    <rect x="0" y="0" width="252" height="2100" fill="#FEF7FF" fill-opacity="1" stroke="#8E6BA8" stroke-width="1.5" stroke-opacity="1"/>
    <text x="3" y="12" font-family="system-ui, sans-serif" font-size="9" fill="#8E6BA8">#FFFEF7FF</text>
  </g>
  <g>
    <rect x="0" y="116" width="252" height="1868" fill="none" fill-opacity="0" stroke="#B0813B" stroke-width="1" stroke-opacity="0.5"/>
  </g>
  <g>
    <rect x="0" y="116" width="252" height="168" fill="none" fill-opacity="0" stroke="#3B72A8" stroke-width="1" stroke-opacity="0.5"/>
  </g>
  <g>
    <rect x="0" y="131" width="252" height="137" fill="none" fill-opacity="0" stroke="#A85B6B" stroke-width="1" stroke-opacity="0.5"/>
  </g>
  <g>
    <path d="M95,131 H158 A42,42 0 0 1 200,173 V173 A42,42 0 0 1 158,215 H95 A42,42 0 0 1 53,173 V173 A42,42 0 0 1 95,131 Z" fill="#E8DEF8" fill-opacity="1" stroke="#4F8A4A" stroke-width="1.5" stroke-opacity="1"/>
    <text x="56" y="143" font-family="system-ui, sans-serif" font-size="9" fill="#4F8A4A">#FFE8DEF8</text>
  </g>
  <g>
    <rect x="95" y="142" width="63" height="63" fill="none" fill-opacity="0" stroke="#4F8A4A" stroke-width="1" stroke-opacity="0.5"/>
  </g>
  <g>
    <rect x="95" y="142" width="63" height="63" fill="none" fill-opacity="0" stroke="#7A7A33" stroke-width="1" stroke-opacity="0.5"/>
  </g>
  <g>
    <rect x="76" y="226" width="99" height="42" fill="none" fill-opacity="0" stroke="#4F8A4A" stroke-width="1" stroke-opacity="0.5"/>
  </g>
  <g>
    <rect x="76" y="226" width="99" height="42" fill="none" fill-opacity="0" stroke="#7A7A33" stroke-width="1" stroke-opacity="0.5"/>
  </g>
  <g>
    <path d="M95,131 H158 A42,42 0 0 1 200,173 V173 A42,42 0 0 1 158,215 H95 A42,42 0 0 1 53,173 V173 A42,42 0 0 1 95,131 Z" fill="none" fill-opacity="0" stroke="#4F8A4A" stroke-width="1.5" stroke-opacity="1"/>
  </g>
  <g>
    <rect x="0" y="295" width="252" height="168" fill="none" fill-opacity="0" stroke="#3B72A8" stroke-width="1" stroke-opacity="0.5"/>
  </g>
  <g>
    <rect x="0" y="310" width="252" height="137" fill="none" fill-opacity="0" stroke="#A85B6B" stroke-width="1" stroke-opacity="0.5"/>
  </g>
  <g>
    <rect x="95" y="321" width="63" height="63" fill="none" fill-opacity="0" stroke="#4F8A4A" stroke-width="1" stroke-opacity="0.5"/>
  </g>
  <g>
    <rect x="95" y="321" width="63" height="63" fill="none" fill-opacity="0" stroke="#7A7A33" stroke-width="1" stroke-opacity="0.5"/>
  </g>
  <g>
    <rect x="67" y="405" width="117" height="42" fill="none" fill-opacity="0" stroke="#4F8A4A" stroke-width="1" stroke-opacity="0.5"/>
  </g>
  <g>
    <rect x="67" y="405" width="117" height="42" fill="none" fill-opacity="0" stroke="#7A7A33" stroke-width="1" stroke-opacity="0.5"/>
  </g>
  <g>
    <path d="M95,310 H158 A42,42 0 0 1 200,352 V352 A42,42 0 0 1 158,394 H95 A42,42 0 0 1 53,352 V352 A42,42 0 0 1 95,310 Z" fill="none" fill-opacity="0" stroke="#4F8A4A" stroke-width="1.5" stroke-opacity="1"/>
  </g>
  <g>
    <rect x="0" y="474" width="252" height="168" fill="none" fill-opacity="0" stroke="#3B72A8" stroke-width="1" stroke-opacity="0.5"/>
  </g>
  <g>
    <rect x="0" y="489" width="252" height="137" fill="none" fill-opacity="0" stroke="#A85B6B" stroke-width="1" stroke-opacity="0.5"/>
  </g>
  <g>
    <rect x="95" y="500" width="63" height="63" fill="none" fill-opacity="0" stroke="#4F8A4A" stroke-width="1" stroke-opacity="0.5"/>
  </g>
  <g>
    <rect x="95" y="500" width="63" height="63" fill="none" fill-opacity="0" stroke="#7A7A33" stroke-width="1" stroke-opacity="0.5"/>
  </g>
  <g>
    <rect x="56" y="584" width="140" height="42" fill="none" fill-opacity="0" stroke="#4F8A4A" stroke-width="1" stroke-opacity="0.5"/>
  </g>
  <g>
    <rect x="56" y="584" width="140" height="42" fill="none" fill-opacity="0" stroke="#7A7A33" stroke-width="1" stroke-opacity="0.5"/>
  </g>
  <g>
    <path d="M95,489 H158 A42,42 0 0 1 200,531 V531 A42,42 0 0 1 158,573 H95 A42,42 0 0 1 53,531 V531 A42,42 0 0 1 95,489 Z" fill="none" fill-opacity="0" stroke="#4F8A4A" stroke-width="1.5" stroke-opacity="1"/>
  </g>
</svg>
